<svg width="88" height="25" viewBox="0 0 88 25" fill="none" xmlns="http://www.w3.org/2000/svg">
<g clip-path="url(#clip0_1_26906)">
<path fill-rule="evenodd" clip-rule="evenodd" d="M16.765 0.871094C16.8644 2.13231 16.4668 3.39353 15.6614 4.36447C14.8759 5.34542 13.6927 5.90597 12.4399 5.89596C12.3603 4.66476 12.768 3.45359 13.5734 2.5327C14.3887 1.59179 15.5322 1.00122 16.765 0.871094ZM20.7468 8.29707C19.2982 9.18597 18.4091 10.7441 18.3891 12.4419C18.3891 14.3596 19.538 16.0874 21.3162 16.8365C20.9765 17.9351 20.4671 18.9838 19.7977 19.9227C18.9086 21.261 17.9696 22.5694 16.4811 22.5894C15.7727 22.604 15.296 22.4013 14.7999 22.1903C14.2816 21.9699 13.742 21.7404 12.8946 21.7404C11.9996 21.7404 11.4352 21.9762 10.8899 22.2039C10.4187 22.4007 9.96179 22.5916 9.31818 22.6193C7.8996 22.6793 6.82068 21.2011 5.89161 19.8727C4.04347 17.1661 2.60491 12.2522 4.53298 8.90632C5.44207 7.27834 7.13037 6.23963 8.9985 6.1797C9.80316 6.1627 10.5757 6.47348 11.2523 6.74566C11.7685 6.95332 12.2288 7.13851 12.6049 7.13851C12.9335 7.13851 13.3787 6.96208 13.8983 6.75615C14.7217 6.42986 15.7318 6.02953 16.7608 6.13975C18.3492 6.18969 19.8277 6.9887 20.7468 8.29707Z" fill="white"/>
</g>
<path d="M31.4266 16.4453H29.9357L33.2857 7.13622H34.9085L38.2585 16.4453H36.7676L34.1357 8.82713H34.063L31.4266 16.4453ZM31.6766 12.7999H36.513V13.9817H31.6766V12.7999ZM39.4937 19.0635V9.46349H40.821V10.5953H40.9346C41.0134 10.4499 41.127 10.2817 41.2755 10.0908C41.424 9.89986 41.6301 9.73319 41.8937 9.59077C42.1573 9.44531 42.5058 9.37259 42.9391 9.37259C43.5028 9.37259 44.0058 9.51501 44.4482 9.79986C44.8907 10.0847 45.2376 10.4953 45.4891 11.0317C45.7437 11.568 45.871 12.2135 45.871 12.968C45.871 13.7226 45.7452 14.3696 45.4937 14.9089C45.2422 15.4453 44.8967 15.8589 44.4573 16.1499C44.0179 16.4377 43.5164 16.5817 42.9528 16.5817C42.5285 16.5817 42.1816 16.5105 41.9119 16.368C41.6452 16.2256 41.4361 16.0589 41.2846 15.868C41.1331 15.6771 41.0164 15.5074 40.9346 15.3589H40.8528V19.0635H39.4937ZM40.8255 12.9544C40.8255 13.4453 40.8967 13.8756 41.0391 14.2453C41.1816 14.615 41.3876 14.9044 41.6573 15.1135C41.927 15.3196 42.2573 15.4226 42.6482 15.4226C43.0543 15.4226 43.3937 15.315 43.6664 15.0999C43.9391 14.8817 44.1452 14.5862 44.2846 14.2135C44.427 13.8408 44.4982 13.4211 44.4982 12.9544C44.4982 12.4938 44.4285 12.0802 44.2891 11.7135C44.1528 11.3468 43.9467 11.0574 43.671 10.8453C43.3982 10.6332 43.0573 10.5271 42.6482 10.5271C42.2543 10.5271 41.921 10.6286 41.6482 10.8317C41.3785 11.0347 41.174 11.318 41.0346 11.6817C40.8952 12.0453 40.8255 12.4696 40.8255 12.9544ZM47.3937 19.0635V9.46349H48.721V10.5953H48.8346C48.9134 10.4499 49.027 10.2817 49.1755 10.0908C49.324 9.89986 49.5301 9.73319 49.7937 9.59077C50.0573 9.44531 50.4058 9.37259 50.8391 9.37259C51.4028 9.37259 51.9058 9.51501 52.3482 9.79986C52.7907 10.0847 53.1376 10.4953 53.3891 11.0317C53.6437 11.568 53.771 12.2135 53.771 12.968C53.771 13.7226 53.6452 14.3696 53.3937 14.9089C53.1422 15.4453 52.7967 15.8589 52.3573 16.1499C51.9179 16.4377 51.4164 16.5817 50.8528 16.5817C50.4285 16.5817 50.0816 16.5105 49.8119 16.368C49.5452 16.2256 49.3361 16.0589 49.1846 15.868C49.0331 15.6771 48.9164 15.5074 48.8346 15.3589H48.7528V19.0635H47.3937ZM48.7255 12.9544C48.7255 13.4453 48.7967 13.8756 48.9391 14.2453C49.0816 14.615 49.2876 14.9044 49.5573 15.1135C49.827 15.3196 50.1573 15.4226 50.5482 15.4226C50.9543 15.4226 51.2937 15.315 51.5664 15.0999C51.8391 14.8817 52.0452 14.5862 52.1846 14.2135C52.327 13.8408 52.3982 13.4211 52.3982 12.9544C52.3982 12.4938 52.3285 12.0802 52.1891 11.7135C52.0528 11.3468 51.8467 11.0574 51.571 10.8453C51.2982 10.6332 50.9573 10.5271 50.5482 10.5271C50.1543 10.5271 49.821 10.6286 49.5482 10.8317C49.2785 11.0347 49.074 11.318 48.9346 11.6817C48.7952 12.0453 48.7255 12.4696 48.7255 12.9544ZM60.4801 9.58168C60.4316 9.15137 60.2316 8.81804 59.8801 8.58168C59.5285 8.34228 59.0861 8.22259 58.5528 8.22259C58.171 8.22259 57.8407 8.28319 57.5619 8.4044C57.2831 8.52258 57.0664 8.68622 56.9119 8.89531C56.7604 9.10137 56.6846 9.33622 56.6846 9.59986C56.6846 9.82107 56.7361 10.012 56.8391 10.1726C56.9452 10.3332 57.0831 10.468 57.2528 10.5771C57.4255 10.6832 57.6104 10.7726 57.8073 10.8453C58.0043 10.915 58.1937 10.9726 58.3755 11.018L59.2846 11.2544C59.5816 11.3271 59.8861 11.4256 60.1982 11.5499C60.5104 11.6741 60.7998 11.8377 61.0664 12.0408C61.3331 12.2438 61.5482 12.4953 61.7119 12.7953C61.8785 13.0953 61.9619 13.4544 61.9619 13.8726C61.9619 14.3999 61.8255 14.868 61.5528 15.2771C61.2831 15.6862 60.8907 16.0089 60.3755 16.2453C59.8634 16.4817 59.2437 16.5999 58.5164 16.5999C57.8194 16.5999 57.2164 16.4893 56.7073 16.268C56.1982 16.0468 55.7998 15.7332 55.5119 15.3271C55.224 14.918 55.0649 14.4332 55.0346 13.8726H56.4437C56.471 14.2089 56.5801 14.4893 56.771 14.7135C56.9649 14.9347 57.2119 15.0999 57.5119 15.2089C57.8149 15.315 58.1467 15.368 58.5073 15.368C58.9043 15.368 59.2573 15.3059 59.5664 15.1817C59.8785 15.0544 60.124 14.8786 60.3028 14.6544C60.4816 14.4271 60.571 14.162 60.571 13.8589C60.571 13.5832 60.4922 13.3574 60.3346 13.1817C60.1801 13.0059 59.9694 12.8605 59.7028 12.7453C59.4391 12.6302 59.1407 12.5286 58.8073 12.4408L57.7073 12.1408C56.9619 11.9377 56.371 11.6393 55.9346 11.2453C55.5013 10.8514 55.2846 10.3302 55.2846 9.68168C55.2846 9.14531 55.4301 8.67713 55.721 8.27713C56.0119 7.87713 56.4058 7.56652 56.9028 7.34531C57.3998 7.12107 57.9604 7.00895 58.5846 7.00895C59.2149 7.00895 59.771 7.11955 60.2528 7.34077C60.7376 7.56198 61.1194 7.86652 61.3982 8.2544C61.677 8.63925 61.8225 9.08168 61.8346 9.58168H60.4801ZM66.7903 9.46349V10.5544H62.9766V9.46349H66.7903ZM63.9994 7.79077H65.3585V14.3953C65.3585 14.6589 65.3979 14.8574 65.4766 14.9908C65.5554 15.1211 65.6569 15.2105 65.7812 15.2589C65.9085 15.3044 66.0463 15.3271 66.1948 15.3271C66.3039 15.3271 66.3994 15.3196 66.4812 15.3044C66.563 15.2893 66.6266 15.2771 66.6721 15.268L66.9176 16.3908C66.8388 16.4211 66.7266 16.4514 66.5812 16.4817C66.4357 16.515 66.2539 16.5332 66.0357 16.5362C65.6782 16.5423 65.3448 16.4786 65.0357 16.3453C64.7266 16.212 64.4766 16.0059 64.2857 15.7271C64.0948 15.4483 63.9994 15.0983 63.9994 14.6771V7.79077ZM71.1596 16.5862C70.5051 16.5862 69.9338 16.4362 69.446 16.1362C68.9581 15.8362 68.5793 15.4165 68.3096 14.8771C68.0399 14.3377 67.9051 13.7074 67.9051 12.9862C67.9051 12.262 68.0399 11.6286 68.3096 11.0862C68.5793 10.5438 68.9581 10.1226 69.446 9.82259C69.9338 9.52259 70.5051 9.37259 71.1596 9.37259C71.8141 9.37259 72.3854 9.52259 72.8732 9.82259C73.3611 10.1226 73.7399 10.5438 74.0096 11.0862C74.2793 11.6286 74.4141 12.262 74.4141 12.9862C74.4141 13.7074 74.2793 14.3377 74.0096 14.8771C73.7399 15.4165 73.3611 15.8362 72.8732 16.1362C72.3854 16.4362 71.8141 16.5862 71.1596 16.5862ZM71.1641 15.4453C71.5884 15.4453 71.9399 15.3332 72.2187 15.1089C72.4975 14.8847 72.7035 14.5862 72.8369 14.2135C72.9732 13.8408 73.0414 13.4302 73.0414 12.9817C73.0414 12.5362 72.9732 12.1271 72.8369 11.7544C72.7035 11.3786 72.4975 11.0771 72.2187 10.8499C71.9399 10.6226 71.5884 10.5089 71.1641 10.5089C70.7369 10.5089 70.3823 10.6226 70.1005 10.8499C69.8217 11.0771 69.6141 11.3786 69.4778 11.7544C69.3444 12.1271 69.2778 12.5362 69.2778 12.9817C69.2778 13.4302 69.3444 13.8408 69.4778 14.2135C69.6141 14.5862 69.8217 14.8847 70.1005 15.1089C70.3823 15.3332 70.7369 15.4453 71.1641 15.4453ZM75.9312 16.4453V9.46349H77.2448V10.5726H77.3176C77.4448 10.1968 77.6691 9.90137 77.9903 9.68622C78.3145 9.46804 78.6812 9.35895 79.0903 9.35895C79.1751 9.35895 79.2751 9.36198 79.3903 9.36804C79.5085 9.3741 79.6009 9.38168 79.6676 9.39077V10.6908C79.613 10.6756 79.516 10.6589 79.3766 10.6408C79.2373 10.6196 79.0979 10.6089 78.9585 10.6089C78.6373 10.6089 78.3509 10.6771 78.0994 10.8135C77.8509 10.9468 77.6539 11.1332 77.5085 11.3726C77.363 11.6089 77.2903 11.8786 77.2903 12.1817V16.4453H75.9312ZM83.6028 16.5862C82.9149 16.5862 82.3225 16.4393 81.8255 16.1453C81.3316 15.8483 80.9498 15.4317 80.6801 14.8953C80.4134 14.3559 80.2801 13.7241 80.2801 12.9999C80.2801 12.2847 80.4134 11.6544 80.6801 11.1089C80.9498 10.5635 81.3255 10.1377 81.8073 9.83168C82.2922 9.52562 82.8588 9.37259 83.5073 9.37259C83.9013 9.37259 84.2831 9.43774 84.6528 9.56804C85.0225 9.69834 85.3543 9.90289 85.6482 10.1817C85.9422 10.4605 86.174 10.8226 86.3437 11.268C86.5134 11.7105 86.5982 12.2483 86.5982 12.8817V13.3635H81.0482V12.3453H85.2664C85.2664 11.9877 85.1937 11.6711 85.0482 11.3953C84.9028 11.1165 84.6982 10.8968 84.4346 10.7362C84.174 10.5756 83.8679 10.4953 83.5164 10.4953C83.1346 10.4953 82.8013 10.5893 82.5164 10.7771C82.2346 10.962 82.0164 11.2044 81.8619 11.5044C81.7104 11.8014 81.6346 12.1241 81.6346 12.4726V13.268C81.6346 13.7347 81.7164 14.1317 81.8801 14.4589C82.0467 14.7862 82.2785 15.0362 82.5755 15.2089C82.8725 15.3786 83.2194 15.4635 83.6164 15.4635C83.874 15.4635 84.1088 15.4271 84.321 15.3544C84.5331 15.2786 84.7164 15.1665 84.871 15.018C85.0255 14.8696 85.1437 14.6862 85.2255 14.468L86.5119 14.6999C86.4088 15.0786 86.224 15.4105 85.9573 15.6953C85.6937 15.9771 85.3619 16.1968 84.9619 16.3544C84.5649 16.5089 84.1119 16.5862 83.6028 16.5862Z" fill="#1F2026"/>
<defs>
<clipPath id="clip0_1_26906">
<rect width="24" height="24" fill="white" transform="translate(0.617554 0.121094)"/>
</clipPath>
</defs>
</svg>
