<svg width="102" height="25" viewBox="0 0 102 25" fill="none" xmlns="http://www.w3.org/2000/svg">
<path d="M21.1021 11.1755L16.9554 8.81836L13.6525 12.1212L16.9554 15.4241L21.1021 13.067C21.8369 12.6522 21.8369 11.5901 21.1021 11.1755Z" fill="url(#paint0_linear_1_26911)"/>
<path d="M13.6526 12.1208L3.78769 2.25586C3.59127 2.45228 3.46759 2.71418 3.46759 3.02701V21.2145C3.46759 21.5274 3.59127 21.7965 3.78769 21.9857L13.6526 12.1208Z" fill="url(#paint1_linear_1_26911)"/>
<path d="M16.9553 8.81842L5.09711 2.08177C4.63877 1.81987 4.11498 1.93627 3.7876 2.25637L13.6525 12.1213L16.9553 8.81842Z" fill="url(#paint2_linear_1_26911)"/>
<path d="M13.6525 12.1211L3.7876 21.986C4.11498 22.3133 4.63877 22.4225 5.09711 22.1606L16.9553 15.4239L13.6525 12.1211Z" fill="url(#paint3_linear_1_26911)"/>
<path d="M36.5203 10.0771C36.4324 9.80137 36.3142 9.5544 36.1658 9.33622C36.0203 9.11501 35.8461 8.92713 35.643 8.77259C35.44 8.61501 35.2082 8.49531 34.9476 8.41349C34.69 8.33168 34.4067 8.29077 34.0976 8.29077C33.5733 8.29077 33.1006 8.42562 32.6794 8.69531C32.2582 8.96501 31.9248 9.36046 31.6794 9.88168C31.437 10.3999 31.3158 11.0347 31.3158 11.7862C31.3158 12.5408 31.4385 13.1786 31.6839 13.6999C31.9294 14.2211 32.2658 14.6165 32.693 14.8862C33.1203 15.1559 33.6067 15.2908 34.1521 15.2908C34.6582 15.2908 35.0991 15.1877 35.4748 14.9817C35.8536 14.7756 36.1461 14.4847 36.3521 14.1089C36.5612 13.7302 36.6658 13.2847 36.6658 12.7726L37.0294 12.8408H34.3658V11.6817H38.0248V12.7408C38.0248 13.5226 37.8582 14.2014 37.5248 14.7771C37.1945 15.3499 36.737 15.7923 36.1521 16.1044C35.5703 16.4165 34.9036 16.5726 34.1521 16.5726C33.3097 16.5726 32.5703 16.3786 31.9339 15.9908C31.3006 15.6029 30.8067 15.0529 30.4521 14.3408C30.0976 13.6256 29.9203 12.7771 29.9203 11.7953C29.9203 11.0529 30.0233 10.3862 30.2294 9.79531C30.4354 9.2044 30.7248 8.70289 31.0976 8.29077C31.4733 7.87562 31.9142 7.55895 32.4203 7.34077C32.9294 7.11955 33.4854 7.00895 34.0885 7.00895C34.5915 7.00895 35.0597 7.08319 35.493 7.23168C35.9294 7.38016 36.3173 7.59077 36.6567 7.86349C36.9991 8.13622 37.2824 8.46046 37.5067 8.83622C37.7309 9.20895 37.8824 9.62259 37.9612 10.0771H36.5203ZM42.6396 16.5862C41.9851 16.5862 41.4139 16.4362 40.926 16.1362C40.4381 15.8362 40.0593 15.4165 39.7896 14.8771C39.5199 14.3377 39.3851 13.7074 39.3851 12.9862C39.3851 12.262 39.5199 11.6286 39.7896 11.0862C40.0593 10.5438 40.4381 10.1226 40.926 9.82259C41.4139 9.52259 41.9851 9.37259 42.6396 9.37259C43.2942 9.37259 43.8654 9.52259 44.3533 9.82259C44.8411 10.1226 45.2199 10.5438 45.4896 11.0862C45.7593 11.6286 45.8942 12.262 45.8942 12.9862C45.8942 13.7074 45.7593 14.3377 45.4896 14.8771C45.2199 15.4165 44.8411 15.8362 44.3533 16.1362C43.8654 16.4362 43.2942 16.5862 42.6396 16.5862ZM42.6442 15.4453C43.0684 15.4453 43.4199 15.3332 43.6987 15.1089C43.9775 14.8847 44.1836 14.5862 44.3169 14.2135C44.4533 13.8408 44.5214 13.4302 44.5214 12.9817C44.5214 12.5362 44.4533 12.1271 44.3169 11.7544C44.1836 11.3786 43.9775 11.0771 43.6987 10.8499C43.4199 10.6226 43.0684 10.5089 42.6442 10.5089C42.2169 10.5089 41.8623 10.6226 41.5805 10.8499C41.3017 11.0771 41.0942 11.3786 40.9578 11.7544C40.8245 12.1271 40.7578 12.5362 40.7578 12.9817C40.7578 13.4302 40.8245 13.8408 40.9578 14.2135C41.0942 14.5862 41.3017 14.8847 41.5805 15.1089C41.8623 15.3332 42.2169 15.4453 42.6442 15.4453ZM50.3521 16.5862C49.6976 16.5862 49.1264 16.4362 48.6385 16.1362C48.1506 15.8362 47.7718 15.4165 47.5021 14.8771C47.2324 14.3377 47.0976 13.7074 47.0976 12.9862C47.0976 12.262 47.2324 11.6286 47.5021 11.0862C47.7718 10.5438 48.1506 10.1226 48.6385 9.82259C49.1264 9.52259 49.6976 9.37259 50.3521 9.37259C51.0067 9.37259 51.5779 9.52259 52.0658 9.82259C52.5536 10.1226 52.9324 10.5438 53.2021 11.0862C53.4718 11.6286 53.6067 12.262 53.6067 12.9862C53.6067 13.7074 53.4718 14.3377 53.2021 14.8771C52.9324 15.4165 52.5536 15.8362 52.0658 16.1362C51.5779 16.4362 51.0067 16.5862 50.3521 16.5862ZM50.3567 15.4453C50.7809 15.4453 51.1324 15.3332 51.4112 15.1089C51.69 14.8847 51.8961 14.5862 52.0294 14.2135C52.1658 13.8408 52.2339 13.4302 52.2339 12.9817C52.2339 12.5362 52.1658 12.1271 52.0294 11.7544C51.8961 11.3786 51.69 11.0771 51.4112 10.8499C51.1324 10.6226 50.7809 10.5089 50.3567 10.5089C49.9294 10.5089 49.5748 10.6226 49.293 10.8499C49.0142 11.0771 48.8067 11.3786 48.6703 11.7544C48.537 12.1271 48.4703 12.5362 48.4703 12.9817C48.4703 13.4302 48.537 13.8408 48.6703 14.2135C48.8067 14.5862 49.0142 14.8847 49.293 15.1089C49.5748 15.3332 49.9294 15.4453 50.3567 15.4453ZM58.051 19.2089C57.4964 19.2089 57.0192 19.1362 56.6192 18.9908C56.2222 18.8453 55.898 18.6529 55.6464 18.4135C55.3949 18.1741 55.207 17.912 55.0828 17.6271L56.251 17.1453C56.3328 17.2786 56.4419 17.4196 56.5783 17.568C56.7176 17.7196 56.9055 17.8483 57.1419 17.9544C57.3813 18.0605 57.6889 18.1135 58.0646 18.1135C58.5798 18.1135 59.0055 17.9877 59.3419 17.7362C59.6783 17.4877 59.8464 17.0908 59.8464 16.5453V15.1726H59.7601C59.6783 15.3211 59.5601 15.4862 59.4055 15.668C59.254 15.8499 59.0449 16.0074 58.7783 16.1408C58.5116 16.2741 58.1646 16.3408 57.7373 16.3408C57.1858 16.3408 56.6889 16.212 56.2464 15.9544C55.807 15.6938 55.4586 15.3105 55.201 14.8044C54.9464 14.2953 54.8192 13.6696 54.8192 12.9271C54.8192 12.1847 54.9449 11.5483 55.1964 11.018C55.451 10.4877 55.7995 10.0817 56.2419 9.79986C56.6843 9.51501 57.1858 9.37259 57.7464 9.37259C58.1798 9.37259 58.5298 9.44531 58.7964 9.59077C59.0631 9.73319 59.2707 9.89986 59.4192 10.0908C59.5707 10.2817 59.6873 10.4499 59.7692 10.5953H59.8692V9.46349H61.201V16.5999C61.201 17.1999 61.0616 17.6923 60.7828 18.0771C60.504 18.462 60.1267 18.7468 59.651 18.9317C59.1783 19.1165 58.6449 19.2089 58.051 19.2089ZM58.0373 15.2135C58.4283 15.2135 58.7586 15.1226 59.0283 14.9408C59.301 14.7559 59.507 14.4923 59.6464 14.1499C59.7889 13.8044 59.8601 13.3908 59.8601 12.9089C59.8601 12.4393 59.7904 12.0256 59.651 11.668C59.5116 11.3105 59.307 11.0317 59.0373 10.8317C58.7676 10.6286 58.4343 10.5271 58.0373 10.5271C57.6283 10.5271 57.2873 10.6332 57.0146 10.8453C56.7419 11.0544 56.5358 11.3393 56.3964 11.6999C56.2601 12.0605 56.1919 12.4635 56.1919 12.9089C56.1919 13.3665 56.2616 13.768 56.401 14.1135C56.5404 14.4589 56.7464 14.7286 57.0192 14.9226C57.2949 15.1165 57.6343 15.2135 58.0373 15.2135ZM64.3828 7.13622V16.4453H63.0237V7.13622H64.3828ZM69.2203 16.5862C68.5324 16.5862 67.94 16.4393 67.443 16.1453C66.9491 15.8483 66.5673 15.4317 66.2976 14.8953C66.0309 14.3559 65.8976 13.7241 65.8976 12.9999C65.8976 12.2847 66.0309 11.6544 66.2976 11.1089C66.5673 10.5635 66.943 10.1377 67.4248 9.83168C67.9097 9.52562 68.4764 9.37259 69.1248 9.37259C69.5188 9.37259 69.9006 9.43774 70.2703 9.56804C70.64 9.69834 70.9718 9.90289 71.2658 10.1817C71.5597 10.4605 71.7915 10.8226 71.9612 11.268C72.1309 11.7105 72.2158 12.2483 72.2158 12.8817V13.3635H66.6658V12.3453H70.8839C70.8839 11.9877 70.8112 11.6711 70.6658 11.3953C70.5203 11.1165 70.3158 10.8968 70.0521 10.7362C69.7915 10.5756 69.4855 10.4953 69.1339 10.4953C68.7521 10.4953 68.4188 10.5893 68.1339 10.7771C67.8521 10.962 67.6339 11.2044 67.4794 11.5044C67.3279 11.8014 67.2521 12.1241 67.2521 12.4726V13.268C67.2521 13.7347 67.3339 14.1317 67.4976 14.4589C67.6642 14.7862 67.8961 15.0362 68.193 15.2089C68.49 15.3786 68.837 15.4635 69.2339 15.4635C69.4915 15.4635 69.7264 15.4271 69.9385 15.3544C70.1506 15.2786 70.3339 15.1665 70.4885 15.018C70.643 14.8696 70.7612 14.6862 70.843 14.468L72.1294 14.6999C72.0264 15.0786 71.8415 15.4105 71.5748 15.6953C71.3112 15.9771 70.9794 16.1968 70.5794 16.3544C70.1824 16.5089 69.7294 16.5862 69.2203 16.5862ZM77.2203 16.4453V7.13622H80.5385C81.2627 7.13622 81.8627 7.26804 82.3385 7.53168C82.8142 7.79531 83.1703 8.15592 83.4067 8.61349C83.643 9.06804 83.7612 9.58016 83.7612 10.1499C83.7612 10.7226 83.6415 11.2377 83.4021 11.6953C83.1658 12.1499 82.8082 12.5105 82.3294 12.7771C81.8536 13.0408 81.2551 13.1726 80.5339 13.1726H78.2521V11.9817H80.4067C80.8642 11.9817 81.2354 11.9029 81.5203 11.7453C81.8051 11.5847 82.0142 11.3665 82.1476 11.0908C82.2809 10.815 82.3476 10.5014 82.3476 10.1499C82.3476 9.79834 82.2809 9.48622 82.1476 9.21349C82.0142 8.94077 81.8036 8.72713 81.5158 8.57259C81.2309 8.41804 80.8551 8.34077 80.3885 8.34077H78.6248V16.4453H77.2203ZM86.6578 7.13622V16.4453H85.2987V7.13622H86.6578ZM90.518 16.5999C90.0756 16.5999 89.6756 16.518 89.318 16.3544C88.9604 16.1877 88.6771 15.9468 88.468 15.6317C88.262 15.3165 88.1589 14.9302 88.1589 14.4726C88.1589 14.0786 88.2347 13.7544 88.3862 13.4999C88.5377 13.2453 88.7423 13.0438 88.9998 12.8953C89.2574 12.7468 89.5453 12.6347 89.8635 12.5589C90.1817 12.4832 90.5059 12.4256 90.8362 12.3862C91.2544 12.3377 91.5938 12.2983 91.8544 12.268C92.115 12.2347 92.3044 12.1817 92.4226 12.1089C92.5408 12.0362 92.5998 11.918 92.5998 11.7544V11.7226C92.5998 11.3256 92.4877 11.018 92.2635 10.7999C92.0423 10.5817 91.712 10.4726 91.2726 10.4726C90.815 10.4726 90.4544 10.5741 90.1908 10.7771C89.9301 10.9771 89.7498 11.1999 89.6498 11.4453L88.3726 11.1544C88.5241 10.7302 88.7453 10.3877 89.0362 10.1271C89.3301 9.86349 89.668 9.67258 90.0498 9.5544C90.4317 9.43319 90.8332 9.37259 91.2544 9.37259C91.5332 9.37259 91.8286 9.40592 92.1408 9.47259C92.4559 9.53622 92.7498 9.6544 93.0226 9.82713C93.2983 9.99986 93.5241 10.2468 93.6998 10.568C93.8756 10.8862 93.9635 11.2999 93.9635 11.8089V16.4453H92.6362V15.4908H92.5817C92.4938 15.6665 92.362 15.8393 92.1862 16.0089C92.0104 16.1786 91.7847 16.3196 91.5089 16.4317C91.2332 16.5438 90.9029 16.5999 90.518 16.5999ZM90.8135 15.5089C91.1892 15.5089 91.5104 15.4347 91.7771 15.2862C92.0468 15.1377 92.2514 14.9438 92.3908 14.7044C92.5332 14.462 92.6044 14.2029 92.6044 13.9271V13.0271C92.5559 13.0756 92.462 13.1211 92.3226 13.1635C92.1862 13.2029 92.0301 13.2377 91.8544 13.268C91.6786 13.2953 91.5074 13.3211 91.3408 13.3453C91.1741 13.3665 91.0347 13.3847 90.9226 13.3999C90.6589 13.4332 90.418 13.4893 90.1998 13.568C89.9847 13.6468 89.812 13.7605 89.6817 13.9089C89.5544 14.0544 89.4908 14.2483 89.4908 14.4908C89.4908 14.8271 89.615 15.0817 89.8635 15.2544C90.112 15.4241 90.4286 15.5089 90.8135 15.5089ZM96.3828 19.0635C96.1798 19.0635 95.9949 19.0468 95.8283 19.0135C95.6616 18.9832 95.5373 18.9499 95.4555 18.9135L95.7828 17.7999C96.0313 17.8665 96.2525 17.8953 96.4464 17.8862C96.6404 17.8771 96.8116 17.8044 96.9601 17.668C97.1116 17.5317 97.2449 17.3089 97.3601 16.9999L97.5283 16.5362L94.9737 9.46349H96.4283L98.1964 14.8817H98.2692L100.037 9.46349H101.496L98.6192 17.3771C98.4858 17.7408 98.3161 18.0483 98.1101 18.2999C97.904 18.5544 97.6586 18.7453 97.3737 18.8726C97.0889 18.9999 96.7586 19.0635 96.3828 19.0635Z" fill="#1F2026"/>
<defs>
<linearGradient id="paint0_linear_1_26911" x1="13.6525" y1="12.1212" x2="21.6551" y2="12.1212" gradientUnits="userSpaceOnUse">
<stop stop-color="#FFBD00"/>
<stop offset="1" stop-color="#FFE000"/>
</linearGradient>
<linearGradient id="paint1_linear_1_26911" x1="13.6526" y1="12.1208" x2="3.46759" y2="22.3057" gradientUnits="userSpaceOnUse">
<stop stop-color="#00BEFF"/>
<stop offset="1" stop-color="#00E3FF"/>
</linearGradient>
<linearGradient id="paint2_linear_1_26911" x1="3.46754" y1="1.93626" x2="13.6525" y2="12.1212" gradientUnits="userSpaceOnUse">
<stop stop-color="#15CF74"/>
<stop offset="1" stop-color="#00F076"/>
</linearGradient>
<linearGradient id="paint3_linear_1_26911" x1="13.6525" y1="12.1211" x2="3.46754" y2="22.306" gradientUnits="userSpaceOnUse">
<stop stop-color="#FF3A44"/>
<stop offset="1" stop-color="#E12653"/>
</linearGradient>
</defs>
</svg>
