<svg width="10" height="6" viewBox="0 0 10 6" fill="none" xmlns="http://www.w3.org/2000/svg">
<path d="M4.61755 5.38656C4.82469 5.38062 5.01409 5.30309 5.16802 5.13609L8.91629 1.25796C9.04655 1.12675 9.11755 0.959756 9.11755 0.762943C9.11755 0.369316 8.80975 0.0532227 8.41915 0.0532227C8.22975 0.0532227 8.04622 0.130756 7.91009 0.267929L4.62349 3.68682L1.32499 0.267929C1.18886 0.136716 1.01129 0.0532227 0.815974 0.0532227C0.425334 0.0532227 0.117554 0.369316 0.117554 0.762943C0.117554 0.959756 0.18858 1.12675 0.318794 1.25796L4.07302 5.13609C4.23282 5.30309 4.41042 5.38656 4.61755 5.38656Z" fill="#7E818C"/>
</svg>
